<svg width="456.1400146484375px" height="120.8px" xmlns="http://www.w3.org/2000/svg" viewBox="21.92999267578125 14.600000000000001 456.1400146484375 120.8" style="background: rgba(0, 0, 0, 0);" preserveAspectRatio="xMidYMid"><defs><filter id="editing-hole" x="-100%" y="-100%" width="300%" height="300%"><feFlood flood-color="#000" result="black"></feFlood><feMorphology operator="dilate" radius="2" in="SourceGraphic" result="erode"></feMorphology><feGaussianBlur in="erode" stdDeviation="4" result="blur"></feGaussianBlur><feOffset in="blur" dx="2" dy="2" result="offset"></feOffset><feComposite operator="atop" in="offset" in2="black" result="merge"></feComposite><feComposite operator="in" in="merge" in2="SourceGraphic" result="inner-shadow"></feComposite></filter></defs><g filter="url(#editing-hole)"><g transform="translate(89.61502230167389, 98.68000221252441)"><path d="M16.38-3.52L16.38-3.52L16.38-3.52Q14.40 1.28 8.06 1.28L8.06 1.28L8.06 1.28Q4.86 1.28 2.82-0.96L2.82-0.96L2.82-0.96Q1.15-2.82 1.15-4.93L1.15-4.93L1.15-4.93Q1.15-9.73 3.39-20.22L3.39-20.22L8.06-44.80L21.06-46.08L14.85-13.70L14.85-13.70Q13.76-8.96 13.76-7.30L13.76-7.30L13.76-7.30Q13.76-3.65 16.38-3.52ZM47.74-10.82L47.74-10.82L47.74-10.82Q49.34-9.73 49.34-7.33L49.34-7.33L49.34-7.33Q49.34-4.93 48.13-3.39L48.13-3.39L48.13-3.39Q46.91-1.86 44.93-0.83L44.93-0.83L44.93-0.83Q40.83 1.28 36.42 1.28L36.42 1.28L36.42 1.28Q32 1.28 29.41 0.32L29.41 0.32L29.41 0.32Q26.82-0.64 25.09-2.43L25.09-2.43L25.09-2.43Q21.70-5.82 21.70-12.03L21.70-12.03L21.70-12.03Q21.70-21.70 26.94-27.58L26.94-27.58L26.94-27.58Q32.58-33.92 42.37-33.92L42.37-33.92L42.37-33.92Q48.45-33.92 51.46-31.36L51.46-31.36L51.46-31.36Q53.70-29.44 53.70-26.30L53.70-26.30L53.70-26.30Q53.70-15.04 34.24-15.04L34.24-15.04L34.24-15.04Q33.98-13.38 33.98-11.97L33.98-11.97L33.98-11.97Q33.98-9.02 35.30-7.90L35.30-7.90L35.30-7.90Q36.61-6.78 39.04-6.78L39.04-6.78L39.04-6.78Q41.47-6.78 44.06-7.90L44.06-7.90L44.06-7.90Q46.66-9.02 47.74-10.82ZM34.69-17.79L34.69-17.79L34.69-17.79Q39.23-17.79 41.86-20.61L41.86-20.61L41.86-20.61Q44.48-23.30 44.48-27.58L44.48-27.58L44.48-27.58Q44.48-29.06 43.94-29.86L43.94-29.86L43.94-29.86Q43.39-30.66 42.30-30.66L42.30-30.66L42.30-30.66Q41.22-30.66 40.29-30.24L40.29-30.24L40.29-30.24Q39.36-29.82 38.40-28.42L38.40-28.42L38.40-28.42Q36.03-25.22 34.69-17.79ZM58.66-1.92L58.66-1.92L58.66-1.92Q57.15-3.58 56.48-6.21L56.48-6.21L56.48-6.21Q55.81-8.83 55.81-13.12L55.81-13.12L55.81-13.12Q55.81-17.41 57.28-21.31L57.28-21.31L57.28-21.31Q58.75-25.22 61.44-28.03L61.44-28.03L61.44-28.03Q66.94-33.92 76.03-33.92L76.03-33.92L76.03-33.92Q79.30-33.92 81.66-32.83L81.66-32.83L92.61-33.92L87.87-8.96L87.87-8.96Q87.68-8.19 87.68-6.78L87.68-6.78L87.68-6.78Q87.68-5.38 88.54-4.48L88.54-4.48L88.54-4.48Q89.41-3.58 90.69-3.46L90.69-3.46L90.69-3.46Q90.05-1.28 87.71 0L87.71 0L87.71 0Q85.38 1.28 82.75 1.28L82.75 1.28L82.75 1.28Q80.13 1.28 78.37 0.29L78.37 0.29L78.37 0.29Q76.61-0.70 76.10-2.37L76.10-2.37L76.10-2.37Q75.07-0.77 72.90 0.26L72.90 0.26L72.90 0.26Q70.72 1.28 67.81 1.28L67.81 1.28L67.81 1.28Q64.90 1.28 62.53 0.51L62.53 0.51L62.53 0.51Q60.16-0.26 58.66-1.92ZM72.16-27.90L72.16-27.90L72.16-27.90Q71.42-26.75 70.78-24.80L70.78-24.80L70.78-24.80Q70.14-22.85 69.09-17.63L69.09-17.63L69.09-17.63Q68.03-12.42 68.03-8.70L68.03-8.70L68.03-8.70Q68.03-4.99 68.61-3.90L68.61-3.90L68.61-3.90Q69.18-2.82 70.21-2.82L70.21-2.82L70.21-2.82Q72.26-2.82 73.76-4.77L73.76-4.77L73.76-4.77Q75.26-6.72 75.84-10.18L75.84-10.18L79.23-28.93L79.23-28.93Q77.89-30.08 76.32-30.08L76.32-30.08L76.32-30.08Q74.75-30.08 73.82-29.57L73.82-29.57L73.82-29.57Q72.90-29.06 72.16-27.90ZM116.10-17.98L116.10-17.98L116.10-17.98Q118.40-22.08 118.40-26.24L118.40-26.24L118.40-26.24Q118.40-28.99 116.42-28.99L116.42-28.99L116.42-28.99Q114.88-28.99 113.28-26.37L113.28-26.37L113.28-26.37Q111.62-23.74 111.10-20.35L111.10-20.35L107.78 0L94.53 1.28L101.06-32.64L111.62-33.92L110.46-27.46L110.46-27.46Q113.60-33.92 120.64-33.92L120.64-33.92L120.64-33.92Q124.35-33.92 126.37-32L126.37-32L126.37-32Q128.38-30.08 128.38-26.14L128.38-26.14L128.38-26.14Q128.38-22.21 125.79-19.71L125.79-19.71L125.79-19.71Q123.20-17.22 118.78-17.22L118.78-17.22L118.78-17.22Q116.86-17.22 116.10-17.98ZM156.48 1.28L156.48 1.28L156.48 1.28Q148.74 1.28 148.74-4.74L148.74-4.74L148.74-4.74Q148.80-6.40 149.31-9.22L149.31-9.22L150.46-15.10L150.46-15.10Q152.19-23.42 152.19-25.28L152.19-25.28L152.19-25.28Q152.19-28.99 150.02-28.99L150.02-28.99L150.02-28.99Q146.37-28.99 144.45-19.46L144.45-19.46L140.67 0L127.81 1.28L134.46-32.70L144.96-33.92L143.94-27.65L143.94-27.65Q146.94-33.92 156.16-33.92L156.16-33.92L156.16-33.92Q160.64-33.92 162.53-32.03L162.53-32.03L162.53-32.03Q164.42-30.14 164.42-25.92L164.42-25.92L164.42-25.92Q164.42-21.95 162.37-12.67L162.37-12.67L162.37-12.67Q161.41-8.51 161.41-6.94L161.41-6.94L161.41-6.94Q161.41-5.38 162.27-4.48L162.27-4.48L162.27-4.48Q163.14-3.58 164.42-3.46L164.42-3.46L164.42-3.46Q163.78-1.28 161.57 0L161.57 0L161.57 0Q159.36 1.28 156.48 1.28ZM202.94-13.25L202.94-13.25L202.94-13.25Q204.61-12.03 204.61-9.44L204.61-9.44L204.61-9.44Q204.61-6.85 203.49-5.02L203.49-5.02L203.49-5.02Q202.37-3.20 200.19-1.79L200.19-1.79L200.19-1.79Q195.52 1.22 187.36 1.22L187.36 1.22L187.36 1.22Q179.20 1.22 174.75-3.04L174.75-3.04L174.75-3.04Q170.30-7.30 170.30-14.85L170.30-14.85L170.30-14.85Q170.30-25.54 175.87-33.66L175.87-33.66L175.87-33.66Q180.10-39.68 187.65-42.24L187.65-42.24L187.65-42.24Q191.55-43.52 195.39-43.52L195.39-43.52L195.39-43.52Q199.23-43.52 201.60-43.01L201.60-43.01L201.60-43.01Q203.97-42.50 205.76-41.47L205.76-41.47L205.76-41.47Q209.66-39.23 209.66-35.65L209.66-35.65L209.66-35.65Q209.66-32.38 206.59-29.95L206.59-29.95L206.59-29.95Q203.78-27.78 201.47-27.78L201.47-27.78L201.47-27.78Q199.17-27.78 198.21-28.10L198.21-28.10L198.21-28.10Q198.46-30.40 198.46-31.90L198.46-31.90L198.46-31.90Q198.46-33.41 198.40-34.50L198.40-34.50L198.40-34.50Q198.34-35.58 198.02-36.61L198.02-36.61L198.02-36.61Q197.38-38.98 195.42-38.98L195.42-38.98L195.42-38.98Q193.47-38.98 191.52-37.15L191.52-37.15L191.52-37.15Q189.57-35.33 187.90-32.26L187.90-32.26L187.90-32.26Q184.13-25.28 184.13-17.02L184.13-17.02L184.13-17.02Q184.13-13.06 186.37-10.78L186.37-10.78L186.37-10.78Q188.61-8.51 193.41-8.51L193.41-8.51L193.41-8.51Q196.99-8.51 200.38-10.88L200.38-10.88L200.38-10.88Q201.86-11.90 202.94-13.25ZM223.87 1.28L223.87 1.28L223.87 1.28Q209.79 1.28 209.79-11.97L209.79-11.97L209.79-11.97Q209.79-21.38 214.98-27.46L214.98-27.46L214.98-27.46Q220.48-33.92 230.02-33.92L230.02-33.92L230.02-33.92Q236.93-33.92 240.45-30.72L240.45-30.72L240.45-30.72Q243.97-27.52 243.97-20.80L243.97-20.80L243.97-20.80Q243.97-10.56 238.46-4.61L238.46-4.61L238.46-4.61Q233.09 1.28 223.87 1.28ZM225.54-26.56L225.54-26.56L225.54-26.56Q224.77-24.83 224.16-22.24L224.16-22.24L224.16-22.24Q223.55-19.65 222.78-15.55L222.78-15.55L222.78-15.55Q222.02-11.46 222.02-6.40L222.02-6.40L222.02-6.40Q222.02-4.74 222.56-3.65L222.56-3.65L222.56-3.65Q223.10-2.56 224.58-2.56L224.58-2.56L224.58-2.56Q226.05-2.56 226.98-3.26L226.98-3.26L226.98-3.26Q227.90-3.97 228.61-5.63L228.61-5.63L228.61-5.63Q229.89-8.58 230.91-14.05L230.91-14.05L230.91-14.05Q231.94-19.52 232.03-21.89L232.03-21.89L232.03-21.89Q232.13-24.26 232.13-26.02L232.13-26.02L232.13-26.02Q232.13-27.78 231.62-28.93L231.62-28.93L231.62-28.93Q231.10-30.08 229.66-30.08L229.66-30.08L229.66-30.08Q228.22-30.08 227.26-29.18L227.26-29.18L227.26-29.18Q226.30-28.29 225.54-26.56ZM267.90-33.92L267.90-33.92L267.90-33.92Q270.21-33.92 272-33.41L272-33.41L272-33.41Q272.06-33.66 272.19-34.37L272.19-34.37L272.51-36.35L272.51-36.35Q272.77-37.63 273.15-39.74L273.15-39.74L274.18-44.80L286.91-46.08L279.81-8.96L279.81-8.96Q279.74-8.58 279.74-7.94L279.74-7.94L279.74-6.91L279.74-6.91Q279.74-5.50 280.45-4.45L280.45-4.45L280.45-4.45Q281.15-3.39 282.30-3.39L282.30-3.39L282.30-3.39Q281.02-0.38 277.12 0.90L277.12 0.90L277.12 0.90Q275.78 1.28 273.89 1.28L273.89 1.28L273.89 1.28Q272 1.28 270.27 0.29L270.27 0.29L270.27 0.29Q268.54-0.70 268.03-2.37L268.03-2.37L268.03-2.37Q267.01-0.70 264.96 0.29L264.96 0.29L264.96 0.29Q262.91 1.28 259.94 1.28L259.94 1.28L259.94 1.28Q256.96 1.28 254.50 0.51L254.50 0.51L254.50 0.51Q252.03-0.26 250.50-1.92L250.50-1.92L250.50-1.92Q247.68-5.18 247.68-12.61L247.68-12.61L247.68-12.61Q247.68-22.21 253.31-28.03L253.31-28.03L253.31-28.03Q258.94-33.92 267.90-33.92ZM267.46-30.08L267.46-30.08L267.46-30.08Q265.09-30.08 263.81-27.52L263.81-27.52L263.81-27.52Q262.53-24.96 261.22-18.62L261.22-18.62L261.22-18.62Q259.90-12.29 259.90-6.59L259.90-6.59L259.90-6.59Q259.90-2.69 262.21-2.69L262.21-2.69L262.21-2.69Q264.26-2.69 265.70-4.74L265.70-4.74L265.70-4.74Q267.14-6.78 267.71-10.18L267.71-10.18L271.17-28.93L271.17-28.93Q269.82-30.08 267.46-30.08ZM313.66-10.82L313.66-10.82L313.66-10.82Q315.26-9.73 315.26-7.33L315.26-7.33L315.26-7.33Q315.26-4.93 314.05-3.39L314.05-3.39L314.05-3.39Q312.83-1.86 310.85-0.83L310.85-0.83L310.85-0.83Q306.75 1.28 302.34 1.28L302.34 1.28L302.34 1.28Q297.92 1.28 295.33 0.32L295.33 0.32L295.33 0.32Q292.74-0.64 291.01-2.43L291.01-2.43L291.01-2.43Q287.62-5.82 287.62-12.03L287.62-12.03L287.62-12.03Q287.62-21.70 292.86-27.58L292.86-27.58L292.86-27.58Q298.50-33.92 308.29-33.92L308.29-33.92L308.29-33.92Q314.37-33.92 317.38-31.36L317.38-31.36L317.38-31.36Q319.62-29.44 319.62-26.30L319.62-26.30L319.62-26.30Q319.62-15.04 300.16-15.04L300.16-15.04L300.16-15.04Q299.90-13.38 299.90-11.97L299.90-11.97L299.90-11.97Q299.90-9.02 301.22-7.90L301.22-7.90L301.22-7.90Q302.53-6.78 304.96-6.78L304.96-6.78L304.96-6.78Q307.39-6.78 309.98-7.90L309.98-7.90L309.98-7.90Q312.58-9.02 313.66-10.82ZM300.61-17.79L300.61-17.79L300.61-17.79Q305.15-17.79 307.78-20.61L307.78-20.61L307.78-20.61Q310.40-23.30 310.40-27.58L310.40-27.58L310.40-27.58Q310.40-29.06 309.86-29.86L309.86-29.86L309.86-29.86Q309.31-30.66 308.22-30.66L308.22-30.66L308.22-30.66Q307.14-30.66 306.21-30.24L306.21-30.24L306.21-30.24Q305.28-29.82 304.32-28.42L304.32-28.42L304.32-28.42Q301.95-25.22 300.61-17.79Z" fill="#ccc"></path></g></g><style>text {
  font-size: 64px;
  font-family: Arial Black;
  dominant-baseline: central;
  text-anchor: middle;
}</style></svg>